<svg width="151" height="151" viewBox="0 0 151 151" fill="none" xmlns="http://www.w3.org/2000/svg">
<rect width="151" height="151" rx="32" fill="white"/>
<path d="M71.3613 22.001C70.9027 22.0569 69.9967 22.1464 69.348 22.2023C68.6992 22.2694 67.8492 22.3701 67.4465 22.4372C67.0438 22.5043 66.4175 22.605 66.0483 22.6721C65.6792 22.728 65.0305 22.8622 64.5943 22.9517C64.1692 23.0524 63.61 23.1754 63.3639 23.2202C62.7711 23.3432 61.5295 23.6676 61.1828 23.7906C61.0262 23.8465 60.6012 23.9696 60.2321 24.0702C59.0017 24.4282 57.1002 25.0545 56.9883 25.1552C56.9324 25.1999 56.8206 25.2447 56.7311 25.2447C56.6416 25.2447 56.4179 25.3118 56.2278 25.4013C56.0264 25.4796 55.4224 25.7368 54.8632 25.9717C53.5209 26.5198 50.1654 28.164 49.1363 28.7792C48.6778 29.0476 48.2639 29.2713 48.2192 29.2713C48.1744 29.2713 47.7941 29.4951 47.3803 29.7747C46.9552 30.0543 46.5973 30.278 46.5749 30.278C46.4966 30.278 43.9017 32.0788 43.0628 32.7276C40.2329 34.8863 37.0563 37.8839 34.8081 40.4901C33.835 41.6198 31.6986 44.4273 30.7367 45.8254C28.9806 48.3868 26.8666 52.4135 25.5692 55.6684C25.4573 55.948 25.3231 56.2724 25.2672 56.3954C25.2112 56.5185 25.0658 56.9435 24.9316 57.3462C24.8086 57.7488 24.6296 58.2298 24.5401 58.4311C24.4506 58.6213 24.3835 58.8338 24.3835 58.9121C24.3835 59.0575 24.0815 60.0194 23.9249 60.4221C23.869 60.5451 23.7683 60.8695 23.7012 61.1491C23.6341 61.4287 23.5111 61.9545 23.4104 62.3236C22.6275 65.4442 22.236 67.6925 21.9004 70.8243C21.7103 72.6251 21.7103 79.3362 21.9004 81.1147C22.1353 83.2958 22.3926 84.9512 22.7617 86.8191C22.8623 87.3113 22.9854 87.9153 23.0301 88.1613C23.1643 88.7989 23.3769 89.649 23.5446 90.1747C23.6341 90.4208 23.7348 90.801 23.7795 91.0136C23.8131 91.2261 23.8914 91.4722 23.9361 91.5728C23.9809 91.6623 24.1039 92.0426 24.2158 92.4117C24.3164 92.7808 24.473 93.2506 24.5625 93.4519C24.652 93.6533 24.7191 93.8658 24.7191 93.9329C24.7191 94 24.7862 94.2125 24.8757 94.4027C24.954 94.604 25.1106 95.0067 25.2224 95.3199C25.3343 95.6219 25.5132 96.1028 25.6363 96.3825C25.7481 96.6621 25.9047 97.0088 25.9718 97.1654C26.285 97.926 26.4192 98.228 27.0792 99.5702C27.7055 100.879 28.4661 102.322 29.0366 103.284C31.6651 107.724 33.8574 110.554 37.4478 114.167C38.4545 115.185 39.5842 116.259 39.9533 116.572C40.3224 116.874 40.7251 117.22 40.8593 117.343C40.9935 117.455 41.4074 117.78 41.7765 118.059C42.1456 118.35 42.5483 118.663 42.6713 118.775C43.0404 119.088 44.0359 119.793 45.5795 120.833C47.9731 122.444 48.1521 122.556 48.2303 122.556C48.2751 122.556 48.633 122.746 49.0245 122.981C49.5838 123.339 52.8275 124.961 53.7446 125.352C54.1809 125.542 54.9862 125.878 55.4783 126.068C55.758 126.18 56.1495 126.336 56.3508 126.426C56.5521 126.515 56.787 126.582 56.8765 126.582C56.9772 126.582 57.1338 126.627 57.2456 126.694C57.57 126.884 59.4938 127.522 60.7354 127.858C62.6928 128.383 64.4712 128.808 65.2318 128.931C65.5562 128.987 66.1266 129.088 66.4958 129.155C69.8961 129.77 74.1912 130.039 77.6698 129.837C80.7009 129.658 82.1774 129.535 83.0386 129.39C84.5486 129.121 85.2086 129.021 85.8909 128.92C86.2823 128.864 86.7521 128.775 86.9535 128.719C87.1436 128.663 87.6805 128.529 88.1391 128.428C89.4925 128.126 92.5908 127.231 92.9711 127.019C93.0829 126.963 93.2619 126.918 93.3738 126.918C93.4856 126.918 93.6758 126.84 93.7988 126.75C93.9106 126.661 94.1008 126.582 94.2015 126.582C94.3133 126.582 94.5594 126.515 94.7607 126.426C94.9621 126.336 95.7562 126.001 96.528 125.688C98.7203 124.77 100.79 123.741 102.836 122.533C103.273 122.276 103.72 122.019 103.843 121.952C104.335 121.695 107.702 119.379 108.608 118.686C110.867 116.93 114.413 113.596 116.102 111.605C116.438 111.214 116.84 110.755 116.986 110.599C117.288 110.263 118.652 108.474 119.29 107.568C120.039 106.516 121.359 104.536 121.359 104.481C121.359 104.458 121.493 104.223 121.661 103.955C122.254 103.038 123.026 101.617 123.943 99.738C124.681 98.228 124.826 97.9148 125.14 97.1654C125.207 97.0088 125.363 96.6509 125.486 96.3601C125.621 96.0693 125.721 95.7561 125.721 95.6666C125.721 95.5771 125.766 95.4765 125.822 95.4317C125.878 95.3982 125.956 95.2192 126.001 95.029C126.046 94.8389 126.146 94.5593 126.236 94.3915C126.325 94.2237 126.392 94.0224 126.392 93.9441C126.392 93.8658 126.437 93.7204 126.493 93.6085C126.594 93.4296 126.817 92.7137 127.231 91.2932C127.321 90.98 127.477 90.4879 127.567 90.197C127.656 89.9062 127.735 89.5595 127.735 89.4365C127.735 89.3134 127.779 89.1233 127.846 89.0114C127.902 88.8996 128.003 88.5305 128.059 88.2061C128.126 87.8705 128.249 87.2442 128.339 86.8191C128.495 86.0697 128.607 85.4545 128.864 84.0228C128.931 83.6537 129.032 82.8931 129.077 82.345C129.133 81.7858 129.233 80.7344 129.301 79.9962C129.468 78.4079 129.39 71.8422 129.2 70.5447C129.054 69.4821 128.853 67.9945 128.741 67.1332C128.697 66.7641 128.607 66.2048 128.54 65.9028C128.473 65.5896 128.339 64.9633 128.238 64.5047C127.802 62.3795 127.556 61.4735 126.672 58.7443C126.448 58.062 126.236 57.4133 126.18 57.2902C126.124 57.1672 125.99 56.8093 125.889 56.5073C125.688 55.9256 125.475 55.4111 125.218 54.8295C125.14 54.6393 124.983 54.2926 124.871 54.0465C124.603 53.409 123.216 50.5903 122.78 49.785C121.818 48.0289 119.547 44.4608 119.122 44.0358C119.088 44.0022 118.898 43.7226 118.686 43.4206C118.473 43.1074 118.25 42.8054 118.182 42.7495C118.115 42.6824 117.88 42.4139 117.668 42.1343C116.728 40.9151 114.447 38.3873 113.116 37.101C111.852 35.8818 111.158 35.2554 109.29 33.6783C108.53 33.0408 107.366 32.1907 105.308 30.7813C103.06 29.2378 100.152 27.6719 96.5839 26.0836C95.7562 25.7145 95.4206 25.5802 95.32 25.5802C95.2641 25.5802 95.0627 25.5019 94.8949 25.4125C94.716 25.323 94.4923 25.2447 94.3916 25.2447C94.3021 25.2447 94.1791 25.1999 94.112 25.1552C94.0113 25.0545 92.0315 24.4058 90.8235 24.0591C90.488 23.9584 89.9846 23.813 89.705 23.7347C89.4254 23.6564 88.8549 23.4998 88.4187 23.3991C87.9937 23.2985 87.4792 23.1754 87.3002 23.1195C87.1101 23.0636 86.6291 22.9629 86.2376 22.8958C85.8349 22.8287 85.1079 22.7056 84.6158 22.6273C84.1236 22.5379 83.3183 22.4148 82.8261 22.3589C82.334 22.2918 81.4839 22.1799 80.9246 22.1016C79.739 21.9451 72.5805 21.8668 71.3613 22.001ZM80.0298 40.9375C81.7971 41.1724 83.6203 41.5303 85.1191 41.9442C85.4546 42.0448 85.9356 42.179 86.1817 42.2462C86.7633 42.4139 87.5463 42.6824 87.9713 42.8613C88.1615 42.9396 88.5306 43.0962 88.8102 43.2081C91.4052 44.2147 94.4252 45.9149 96.9195 47.7716C99.0111 49.3264 101.483 51.6529 102.78 53.2636C103.127 53.6886 103.429 54.0689 103.474 54.1025C103.619 54.2367 104.906 56.0151 105.375 56.731C106.203 57.9837 107.646 60.7129 108.149 61.9321C108.284 62.2676 108.44 62.6479 108.496 62.771C108.753 63.3638 109.212 64.6165 109.346 65.0863C109.436 65.3883 109.581 65.8916 109.682 66.2048C110.733 69.7617 111.136 73.1173 111.024 77.4795C110.99 78.8665 110.912 80.287 110.845 80.6561C110.778 81.014 110.677 81.6404 110.621 82.0542C110.532 82.7589 110.386 83.4412 110.017 84.9176C109.704 86.1928 109.592 86.5954 109.503 86.8191C109.458 86.9422 109.301 87.3672 109.167 87.7699C109.033 88.1725 108.876 88.5976 108.832 88.7206C108.776 88.8436 108.619 89.2239 108.485 89.5595C107.881 91.0695 105.8 95.1073 105.476 95.3758C105.443 95.4093 105.331 95.5659 105.219 95.7337C105.107 95.9127 104.95 96.0469 104.861 96.0469C104.783 96.0469 104.436 95.7673 104.112 95.4205C103.608 94.8836 102.523 93.9329 101.27 92.9374C100.689 92.4676 98.6196 91.103 97.8143 90.6556C97.0201 90.2194 96.0582 89.7496 94.9621 89.2575C94.6265 89.1121 94.2462 88.9443 94.1232 88.8772C93.8771 88.7653 91.9644 88.0383 90.5998 87.5462C89.3471 87.0876 87.5686 86.3941 86.9423 86.1368C86.7521 86.0473 86.5396 85.9802 86.4837 85.9802C86.4166 85.9802 86.2264 85.9131 86.0475 85.8236C85.7007 85.6447 85.0296 85.3427 84.5039 85.1302C83.7098 84.8058 82.5353 84.3136 82.155 84.1347C79.8844 83.0833 77.2895 81.741 75.9696 80.9469C75.5558 80.6896 75.1195 80.4324 74.9965 80.3541C74.8735 80.2758 74.1912 79.7948 73.4865 79.2691C68.9229 75.9024 66.5293 72.077 66.2385 67.6701C65.9924 64.0349 66.753 60.8919 68.6209 57.7936C69.2809 56.675 69.9743 55.825 71.0817 54.7176C72.3456 53.4537 72.5469 53.2859 73.7773 52.4582C74.6498 51.8654 75.2202 51.5299 76.3946 50.9035C76.8421 50.6686 77.6362 50.333 78.2402 50.1429C78.5534 50.0422 78.8778 49.9192 78.9672 49.8856C79.5377 49.6396 81.249 49.2033 82.155 49.0579C82.5241 49.002 83.0722 48.9013 83.3742 48.8342C83.6762 48.7559 85.4435 48.6776 87.3449 48.6329C90.1636 48.577 90.7676 48.5434 90.7676 48.4092C90.7676 48.2414 90.6781 48.1855 90.0406 47.917C89.7162 47.7716 87.6358 47.0782 86.1705 46.6084C85.5106 46.3959 83.4189 45.9708 82.3228 45.8142C81.8642 45.7583 81.2043 45.6465 80.8687 45.5793C79.9627 45.4116 75.2873 45.3333 74.1576 45.4787C71.9429 45.7471 71.3949 45.8254 71.0258 45.9261C70.8132 45.982 70.2316 46.1162 69.7395 46.2169C65.9477 47.0446 61.3841 49.2705 58.2187 51.843C56.4738 53.2636 54.371 55.5677 53.1518 57.4133C52.6373 58.185 52.2346 58.8226 52.2346 58.845C52.2346 58.8673 52.0445 59.2253 51.8096 59.6503C50.8477 61.4176 50.0088 63.6322 49.5055 65.735C48.9462 68.0839 48.7001 72.1106 49.0021 74.0121C49.0581 74.4147 49.1587 75.0859 49.2146 75.5109C49.2818 75.9359 49.3712 76.4393 49.4383 76.6294C49.4943 76.8196 49.6285 77.2782 49.7292 77.6473C50.2325 79.504 51.0378 81.3496 52.1452 83.1727C53.1406 84.7946 55.4672 87.5797 56.9324 88.8884C57.3575 89.2687 57.8384 89.7049 58.0174 89.8615C58.6438 90.4431 60.8249 92.2216 61.9098 93.0493C64.516 95.0067 67.2116 96.7963 70.8021 98.955C71.6074 99.4472 72.5358 99.9841 73.095 100.297C76.4618 102.154 78.3185 103.172 78.7435 103.407C80.3206 104.257 83.1393 106.035 84.0677 106.762C84.2466 106.897 85.0296 107.489 85.8126 108.071C86.5843 108.653 87.2555 109.178 87.3002 109.245C87.4344 109.469 87.0877 109.704 86.3942 109.861C85.7678 109.995 83.6426 110.521 83.1617 110.655C82.7478 110.767 81.0589 111.035 79.3587 111.259C77.0546 111.561 73.7773 111.561 71.4396 111.259C70.4889 111.136 69.65 111.013 69.5605 110.979C69.471 110.946 69.1019 110.878 68.7328 110.823C67.7038 110.655 66.7754 110.431 64.8739 109.894C64.5943 109.816 64.3258 109.715 64.2587 109.682C64.2028 109.637 63.9679 109.57 63.7554 109.525C63.5429 109.48 63.3192 109.402 63.2521 109.368C63.1961 109.324 62.8941 109.189 62.5809 109.078C61.7197 108.764 60.7578 108.351 59.3708 107.679C58.5878 107.299 56.06 105.823 55.9258 105.677C55.8922 105.644 55.6238 105.442 55.3106 105.23C54.3039 104.536 53.6328 104.067 53.5769 104C53.5433 103.966 53.1742 103.653 52.738 103.306C51.7984 102.557 49.1699 99.9505 48.4093 99.011C46.4743 96.6285 45.0873 94.5033 43.8681 92.0762C42.0114 88.3739 40.8258 84.3025 40.356 80.0521C40.1435 78.1282 40.177 73.4976 40.4119 71.775C40.7139 69.5939 40.9264 68.4866 41.3626 66.9654C41.7094 65.735 42.1568 64.281 42.291 64.0013C42.3469 63.8783 42.5147 63.4533 42.6601 63.0506C43.1187 61.8202 43.6332 60.7129 44.405 59.3036C44.6063 58.9345 44.886 58.4311 45.0202 58.185C46.5973 55.2993 49.7515 51.541 52.6821 49.0579C55.1204 46.9887 58.1404 45.0984 61.2163 43.7114C61.6414 43.5213 62.0105 43.3647 62.0441 43.3647C62.0776 43.3647 62.2566 43.2976 62.4467 43.2081C63.1402 42.9173 63.4422 42.7942 64.0686 42.5929C65.1312 42.2462 66.2385 41.9218 66.9991 41.7428C67.4018 41.6422 67.9051 41.5191 68.1176 41.4632C68.9118 41.2619 70.4441 41.0158 71.6969 40.8927C72.4015 40.8256 73.0055 40.7473 73.0391 40.7138C73.1621 40.6019 78.7659 40.7809 80.0298 40.9375Z" fill="#0C80FF"/>
</svg>
